<svg xmlns="http://www.w3.org/2000/svg" version="1.1" xmlns:xlink="http://www.w3.org/1999/xlink" xmlns:svgjs="http://svgjs.dev/svgjs" width="1000" height="750" viewBox="0 0 1000 750"><rect width="1000" height="750" fill="#000000"></rect><g transform="matrix(0.834,0,0,0.834,82.49454545454546,115.4193570850203)"><svg viewBox="0 0 396 247" data-background-color="#ffffff" preserveAspectRatio="xMidYMid meet" height="623" width="1000" xmlns="http://www.w3.org/2000/svg" xmlns:xlink="http://www.w3.org/1999/xlink"><g id="tight-bounds" transform="matrix(1,0,0,1,0.2400000000000091,-0.09999999999999432)"><svg viewBox="0 0 395.52 247.2" height="247.2" width="395.52"><g><svg></svg></g><g><svg viewBox="0 0 395.52 247.2" height="247.2" width="395.52"><g transform="matrix(1,0,0,1,75.54432000000001,54.872728578553634)"><svg viewBox="0 0 244.43135999999996 137.45454284289272" height="137.45454284289272" width="244.43135999999996"><g><svg viewBox="0 0 244.43135999999996 137.45454284289272" height="137.45454284289272" width="244.43135999999996"><g><svg viewBox="0 0 244.43136 137.45454284289275" height="137.45454284289272" width="244.43135999999996"><g><svg viewBox="0 0 244.43136 137.45454284289275" height="137.45454284289275" width="244.43136"><g id="textblocktransform"><svg viewBox="0 0 244.43136 137.45454284289275" height="137.45454284289275" width="244.43136" id="textblock"><g><svg viewBox="0 0 244.43136 137.45454284289275" height="137.45454284289275" width="244.43136"><g transform="matrix(1,0,0,1,0,0)"><svg width="244.43136" viewBox="4.579999923706055 -33.75 60.80999755859375 34.209999084472656" height="137.45454284289275" data-palette-color="#1ebbd7"><path d="M8.14-21.16L8.14-21.16 8.14 0 4.58 0 4.58-33.27 10.39-33.27 20.93-5.81 21.11-5.81 31.72-33.27 37.51-33.27 37.51 0 33.65 0 33.65-21.44Q33.65-25.28 33.97-29.45L33.97-29.45 33.77-29.45 22.4 0 19.29 0 8.01-29.47 7.84-29.47Q8.14-25.99 8.14-21.16ZM65.39-8.85L65.39-8.85Q65.39-4.45 62.22-2 59.05 0.46 53.35 0.46 47.65 0.46 44.46-1.06L44.46-1.06 44.46-4.8Q48.96-2.93 53.71-2.93L53.71-2.93Q57.53-2.93 59.51-4.37 61.5-5.81 61.5-8.49L61.5-8.49Q61.5-10.21 60.8-11.3 60.11-12.39 58.47-13.35 56.82-14.31 53.54-15.47L53.54-15.47Q48.91-17.11 46.9-19.39 44.89-21.66 44.89-25.43 44.89-29.2 47.77-31.47L47.77-31.47Q50.71-33.75 55.55-33.75 60.39-33.75 64.56-31.93L64.56-31.93 63.34-28.54Q59.22-30.28 55.36-30.28L55.36-30.28Q52.27-30.28 50.54-28.96 48.81-27.63 48.81-25.3L48.81-25.3Q48.81-23.53 49.43-22.47 50.05-21.41 51.59-20.42L51.59-20.42Q53.18-19.46 56.24-18.4L56.24-18.4Q61.5-16.53 63.42-14.38L63.42-14.38Q65.39-12.26 65.39-8.85Z" opacity="1" transform="matrix(1,0,0,1,0,0)" fill="#ffffff" class="undefined-text-0" data-fill-palette-color="primary" id="text-0"></path></svg></g></svg></g></svg></g></svg></g></svg></g></svg></g></svg></g><path d="M145.625 48.873L145.625 4.12 384.585 4.12 384.585 243.08 145.625 243.08 145.625 198.327 158.021 198.327 158.021 230.684 372.19 230.684 372.19 16.516 158.021 16.516 158.021 48.873Z" fill="#ffffff" stroke="transparent" data-fill-palette-color="primary"></path></svg></g><defs></defs></svg><rect width="395.52" height="247.2" fill="none" stroke="none" visibility="hidden"></rect></g></svg></g></svg>